<svg xmlns="http://www.w3.org/2000/svg" viewBox="0 0 720 210" role="img" aria-label="Swaraj Agro logo">
  <defs>
    <linearGradient id="g" x1="0" y1="0" x2="1" y2="1">
      <stop offset="0" stop-color="#0d5138"/><stop offset="1" stop-color="#2f8a3d"/>
    </linearGradient>
  </defs>
  <g transform="translate(24 26)">
    <circle cx="78" cy="70" r="58" fill="#eef8df" stroke="#c7ef55" stroke-width="6"/>
    <path d="M78 110c-30-21-34-60-9-84 27 14 37 46 9 84Z" fill="#2f8a3d"/>
    <path d="M78 110c9-36 29-54 55-61-1 28-18 52-55 61Z" fill="url(#g)"/>
    <path d="M24 124c35-10 74-6 111 11" fill="none" stroke="#0d5138" stroke-width="8" stroke-linecap="round"/>
    <g transform="translate(128 18)">
      <circle cx="52" cy="28" r="18" fill="#f6bd35"/>
      <g stroke="#f6bd35" stroke-width="4" stroke-linecap="round">
        <path d="M52 1v-11M52 57v11M25 28H14M90 28H101M33 9 25 1M71 47l8 8M71 9l8-8M33 47l-8 8"/>
      </g>
      <path d="M8 101h116" stroke="#143d56" stroke-width="9" stroke-linecap="round"/>
      <path d="M20 91 56 56l37 35" fill="none" stroke="#216197" stroke-width="10" stroke-linejoin="round"/>
      <path d="M39 91V70h20v21M78 91V68h18v23" fill="#d7e6f0" stroke="#216197" stroke-width="5"/>
    </g>
  </g>
  <g transform="translate(268 48)">
    <text x="0" y="70" font-family="Arial, Helvetica, sans-serif" font-size="84" font-weight="800" fill="#0d5138" letter-spacing="-4">swaraj</text>
    <path d="M4 88h320" stroke="#6da83d" stroke-width="5"/>
    <text x="4" y="123" font-family="Arial, Helvetica, sans-serif" font-size="33" font-weight="700" fill="#6da83d" letter-spacing="10">AGRO</text>
    <text x="170" y="149" font-family="Arial, Helvetica, sans-serif" font-size="14" fill="#3f534a" letter-spacing="3">FARM MACHINERY • SOLAR SOLUTIONS</text>
  </g>
</svg>
